# Blender 4.5.5 LTS
# www.blender.org
mtllib sphere.mtl
o Sphere
v 0.000000 0.191342 -0.461940
v 0.000000 -0.000000 -0.500000
v 0.000000 -0.191342 -0.461940
v 0.000000 -0.461940 -0.191342
v 0.073223 0.461940 -0.176777
v 0.135299 0.353553 -0.326641
v 0.176777 0.191342 -0.426777
v 0.191342 -0.000000 -0.461940
v 0.176777 -0.191342 -0.426777
v 0.135299 -0.353553 -0.326641
v 0.073223 -0.461940 -0.176777
v 0.135299 0.461940 -0.135299
v 0.250000 0.353553 -0.250000
v 0.326641 0.191342 -0.326641
v 0.353553 -0.000000 -0.353553
v 0.326641 -0.191342 -0.326641
v 0.250000 -0.353553 -0.250000
v 0.135299 -0.461940 -0.135299
v 0.176777 0.461940 -0.073223
v 0.326641 0.353553 -0.135299
v 0.426777 0.191342 -0.176777
v 0.461940 -0.000000 -0.191342
v 0.426777 -0.191342 -0.176777
v 0.326641 -0.353553 -0.135299
v 0.176777 -0.461940 -0.073223
v 0.191342 0.461940 -0.000000
v 0.353553 0.353553 -0.000000
v 0.461940 0.191342 -0.000000
v 0.500000 0.000000 0.000000
v 0.461940 -0.191342 0.000000
v 0.353553 -0.353553 0.000000
v 0.191342 -0.461940 0.000000
v 0.176777 0.461940 0.073223
v 0.326641 0.353553 0.135299
v 0.426777 0.191342 0.176777
v 0.461940 0.000000 0.191342
v 0.426777 -0.191342 0.176777
v 0.326641 -0.353553 0.135299
v 0.176777 -0.461940 0.073223
v 0.135299 0.461940 0.135299
v 0.250000 0.353553 0.250000
v 0.326641 0.191342 0.326641
v 0.353553 0.000000 0.353553
v 0.326641 -0.191342 0.326641
v 0.250000 -0.353553 0.250000
v 0.135299 -0.461940 0.135299
v 0.073223 0.461940 0.176777
v 0.135299 0.353553 0.326641
v 0.176777 0.191342 0.426777
v 0.191342 0.000000 0.461940
v 0.176777 -0.191342 0.426777
v 0.135299 -0.353553 0.326641
v 0.073223 -0.461940 0.176777
v 0.000000 0.461940 0.191342
v 0.000000 0.353553 0.353553
v 0.000000 0.191342 0.461940
v 0.000000 0.000000 0.500000
v 0.000000 -0.191342 0.461940
v 0.000000 -0.353553 0.353553
v 0.000000 -0.461940 0.191342
v 0.000000 -0.500000 0.000000
v 0.000000 0.500000 -0.000000
v -0.073223 0.461940 0.176777
v -0.135299 0.353553 0.326641
v -0.176777 0.191342 0.426777
v -0.191342 0.000000 0.461940
v -0.176777 -0.191342 0.426777
v -0.135299 -0.353553 0.326641
v -0.073223 -0.461940 0.176777
v -0.135299 0.461940 0.135299
v -0.250000 0.353553 0.250000
v -0.326641 0.191342 0.326641
v -0.353554 0.000000 0.353553
v -0.326641 -0.191342 0.326641
v -0.250000 -0.353553 0.250000
v -0.135299 -0.461940 0.135299
v -0.176777 0.461940 0.073223
v -0.326641 0.353553 0.135299
v -0.426777 0.191342 0.176777
v -0.461940 0.000000 0.191341
v -0.426777 -0.191342 0.176777
v -0.326641 -0.353553 0.135299
v -0.176777 -0.461940 0.073223
v -0.191342 0.461940 -0.000000
v -0.353553 0.353553 -0.000000
v -0.461940 0.191342 -0.000000
v -0.500000 0.000000 0.000000
v -0.461940 -0.191342 0.000000
v -0.353553 -0.353553 0.000000
v -0.191342 -0.461940 0.000000
v -0.176777 0.461940 -0.073223
v -0.326641 0.353553 -0.135299
v -0.426777 0.191342 -0.176777
v -0.461940 -0.000000 -0.191342
v -0.426777 -0.191342 -0.176777
v -0.326641 -0.353553 -0.135299
v -0.176777 -0.461940 -0.073223
v -0.135299 0.461940 -0.135299
v -0.250000 0.353553 -0.250000
v -0.326641 0.191342 -0.326641
v -0.353553 -0.000000 -0.353554
v -0.326641 -0.191342 -0.326641
v -0.250000 -0.353553 -0.250000
v -0.135299 -0.461940 -0.135299
v -0.073223 0.461940 -0.176777
v -0.135299 0.353553 -0.326641
v -0.176776 0.191342 -0.426777
v -0.191341 -0.000000 -0.461940
v -0.176776 -0.191342 -0.426777
v -0.135299 -0.353553 -0.326641
v -0.073223 -0.461940 -0.176777
v 0.000000 0.461940 -0.191342
v 0.000000 0.353553 -0.353553
v 0.000000 -0.353553 -0.353553
vn -0.0000 -0.6952 -0.7189
vn 0.3549 -0.3744 -0.8567
vn 0.2751 -0.6952 -0.6641
vn -0.0000 -0.0000 -1.0000
vn 0.3549 0.3744 -0.8567
vn 0.3827 -0.0000 -0.9239
vn -0.0000 0.6952 -0.7189
vn 0.1543 0.9152 -0.3724
vn 0.2751 0.6952 -0.6641
vn -0.0000 -0.9152 -0.4031
vn 0.1543 -0.9152 -0.3724
vn -0.0000 -0.3744 -0.9273
vn -0.0000 0.3744 -0.9273
vn -0.0000 0.9152 -0.4031
vn -0.0000 1.0000 -0.0000
vn -0.0000 -1.0000 -0.0000
vn 0.5083 -0.6952 -0.5083
vn 0.2850 -0.9152 -0.2850
vn 0.7071 -0.0000 -0.7071
vn 0.6557 -0.3744 -0.6557
vn 0.5083 0.6952 -0.5083
vn 0.6557 0.3744 -0.6557
vn 0.2850 0.9152 -0.2850
vn 0.6641 0.6952 -0.2751
vn 0.8567 0.3744 -0.3549
vn 0.3724 0.9152 -0.1543
vn 0.3724 -0.9152 -0.1543
vn 0.8567 -0.3744 -0.3549
vn 0.6641 -0.6952 -0.2751
vn 0.9239 -0.0000 -0.3827
vn 0.4031 -0.9152 -0.0000
vn 0.9273 -0.3744 -0.0000
vn 0.7189 -0.6952 -0.0000
vn 0.9273 0.3744 -0.0000
vn 1.0000 -0.0000 -0.0000
vn 0.4031 0.9152 -0.0000
vn 0.7189 0.6952 -0.0000
vn 0.3724 0.9152 0.1543
vn 0.6641 0.6952 0.2751
vn 0.6641 -0.6952 0.2751
vn 0.3724 -0.9152 0.1543
vn 0.9239 -0.0000 0.3827
vn 0.8567 -0.3744 0.3549
vn 0.8567 0.3744 0.3549
vn 0.5083 -0.6952 0.5083
vn 0.2850 -0.9152 0.2850
vn 0.7071 -0.0000 0.7071
vn 0.6557 -0.3744 0.6557
vn 0.5083 0.6952 0.5083
vn 0.6557 0.3744 0.6557
vn 0.2850 0.9152 0.2850
vn 0.1543 0.9152 0.3724
vn 0.1543 -0.9152 0.3724
vn 0.3549 -0.3744 0.8567
vn 0.2751 -0.6952 0.6641
vn 0.3549 0.3744 0.8567
vn 0.3827 -0.0000 0.9239
vn 0.2751 0.6952 0.6641
vn -0.0000 -0.3744 0.9273
vn -0.0000 -0.6952 0.7189
vn -0.0000 0.3744 0.9273
vn -0.0000 -0.0000 1.0000
vn -0.0000 0.9152 0.4031
vn -0.0000 0.6952 0.7189
vn -0.0000 -0.9152 0.4031
vn -0.2751 -0.6952 0.6641
vn -0.1543 -0.9152 0.3724
vn -0.3827 -0.0000 0.9239
vn -0.3549 -0.3744 0.8567
vn -0.2751 0.6952 0.6641
vn -0.3549 0.3744 0.8567
vn -0.1543 0.9152 0.3724
vn -0.7071 -0.0000 0.7071
vn -0.6557 -0.3744 0.6557
vn -0.5083 0.6952 0.5083
vn -0.6557 0.3744 0.6557
vn -0.2850 0.9152 0.2850
vn -0.2850 -0.9152 0.2850
vn -0.5083 -0.6952 0.5083
vn -0.3724 -0.9152 0.1543
vn -0.8567 -0.3744 0.3549
vn -0.6641 -0.6952 0.2751
vn -0.8567 0.3744 0.3549
vn -0.9239 -0.0000 0.3827
vn -0.3724 0.9152 0.1543
vn -0.6641 0.6952 0.2751
vn -0.9273 0.3744 -0.0000
vn -1.0000 -0.0000 -0.0000
vn -0.4031 0.9152 -0.0000
vn -0.7189 0.6952 -0.0000
vn -0.7189 -0.6952 -0.0000
vn -0.4031 -0.9152 -0.0000
vn -0.9273 -0.3744 -0.0000
vn -0.6641 -0.6952 -0.2751
vn -0.3724 -0.9152 -0.1543
vn -0.9239 -0.0000 -0.3827
vn -0.8567 -0.3744 -0.3549
vn -0.6641 0.6952 -0.2751
vn -0.8567 0.3744 -0.3549
vn -0.3724 0.9152 -0.1543
vn -0.5083 0.6952 -0.5083
vn -0.6557 0.3744 -0.6557
vn -0.2850 0.9152 -0.2850
vn -0.2850 -0.9152 -0.2850
vn -0.6557 -0.3744 -0.6557
vn -0.5083 -0.6952 -0.5083
vn -0.7071 -0.0000 -0.7071
vn -0.1543 -0.9152 -0.3724
vn -0.3549 -0.3744 -0.8567
vn -0.2751 -0.6952 -0.6641
vn -0.3549 0.3744 -0.8567
vn -0.3827 -0.0000 -0.9239
vn -0.1543 0.9152 -0.3724
vn -0.2751 0.6952 -0.6641
vt 0.750000 0.250000
vt 0.687500 0.375000
vt 0.687500 0.250000
vt 0.750000 0.500000
vt 0.687500 0.625000
vt 0.687500 0.500000
vt 0.750000 0.750000
vt 0.687500 0.875000
vt 0.687500 0.750000
vt 0.750000 0.125000
vt 0.687500 0.125000
vt 0.750000 0.375000
vt 0.750000 0.625000
vt 0.750000 0.875000
vt 0.718750 1.000000
vt 0.718750 0.000000
vt 0.625000 0.250000
vt 0.625000 0.125000
vt 0.625000 0.500000
vt 0.625000 0.375000
vt 0.625000 0.750000
vt 0.625000 0.625000
vt 0.656250 1.000000
vt 0.625000 0.875000
vt 0.656250 0.000000
vt 0.562500 0.750000
vt 0.562500 0.625000
vt 0.593750 1.000000
vt 0.562500 0.875000
vt 0.593750 0.000000
vt 0.562500 0.125000
vt 0.562500 0.375000
vt 0.562500 0.250000
vt 0.562500 0.500000
vt 0.531250 0.000000
vt 0.500000 0.125000
vt 0.500000 0.375000
vt 0.500000 0.250000
vt 0.500000 0.625000
vt 0.500000 0.500000
vt 0.500000 0.875000
vt 0.500000 0.750000
vt 0.531250 1.000000
vt 0.437500 0.875000
vt 0.437500 0.750000
vt 0.437500 0.250000
vt 0.437500 0.125000
vt 0.437500 0.500000
vt 0.437500 0.375000
vt 0.437500 0.625000
vt 0.468750 1.000000
vt 0.468750 0.000000
vt 0.375000 0.250000
vt 0.375000 0.125000
vt 0.375000 0.500000
vt 0.375000 0.375000
vt 0.375000 0.750000
vt 0.375000 0.625000
vt 0.406250 1.000000
vt 0.375000 0.875000
vt 0.406250 0.000000
vt 0.343750 1.000000
vt 0.312500 0.875000
vt 0.343750 0.000000
vt 0.312500 0.125000
vt 0.312500 0.375000
vt 0.312500 0.250000
vt 0.312500 0.625000
vt 0.312500 0.500000
vt 0.312500 0.750000
vt 0.250000 0.375000
vt 0.250000 0.250000
vt 0.250000 0.625000
vt 0.250000 0.500000
vt 0.250000 0.875000
vt 0.250000 0.750000
vt 0.250000 0.125000
vt 0.281250 1.000000
vt 0.281250 0.000000
vt 0.187500 0.250000
vt 0.187500 0.125000
vt 0.187500 0.500000
vt 0.187500 0.375000
vt 0.187500 0.750000
vt 0.187500 0.625000
vt 0.218750 1.000000
vt 0.187500 0.875000
vt 0.218750 0.000000
vt 0.125000 0.500000
vt 0.125000 0.375000
vt 0.125000 0.750000
vt 0.125000 0.625000
vt 0.156250 1.000000
vt 0.125000 0.875000
vt 0.156250 0.000000
vt 0.125000 0.125000
vt 0.125000 0.250000
vt 0.093750 0.000000
vt 0.062500 0.125000
vt 0.062500 0.375000
vt 0.062500 0.250000
vt 0.062500 0.625000
vt 0.062500 0.500000
vt 0.062500 0.875000
vt 0.062500 0.750000
vt 0.093750 1.000000
vt 0.000000 0.625000
vt 0.000000 0.500000
vt 0.000000 0.875000
vt 0.000000 0.750000
vt 0.000000 0.250000
vt 0.000000 0.125000
vt 0.000000 0.375000
vt 0.031250 1.000000
vt 0.031250 0.000000
vt 1.000000 0.125000
vt 0.937500 0.250000
vt 0.937500 0.125000
vt 1.000000 0.375000
vt 0.937500 0.500000
vt 0.937500 0.375000
vt 1.000000 0.625000
vt 0.937500 0.750000
vt 0.937500 0.625000
vt 1.000000 0.875000
vt 0.968750 1.000000
vt 0.937500 0.875000
vt 0.968750 0.000000
vt 1.000000 0.250000
vt 1.000000 0.500000
vt 1.000000 0.750000
vt 0.875000 0.750000
vt 0.875000 0.625000
vt 0.906250 1.000000
vt 0.875000 0.875000
vt 0.906250 0.000000
vt 0.875000 0.125000
vt 0.875000 0.375000
vt 0.875000 0.250000
vt 0.875000 0.500000
vt 0.843750 0.000000
vt 0.812500 0.125000
vt 0.812500 0.375000
vt 0.812500 0.250000
vt 0.812500 0.625000
vt 0.812500 0.500000
vt 0.812500 0.875000
vt 0.812500 0.750000
vt 0.843750 1.000000
vt 0.781250 1.000000
vt 0.781250 0.000000
s 1
f 114/1/1 9/2/2 10/3/3
f 2/4/4 7/5/5 8/6/6
f 113/7/7 5/8/8 6/9/9
f 4/10/10 10/3/3 11/11/11
f 3/12/12 8/6/6 9/2/2
f 1/13/13 6/9/9 7/5/5
f 112/14/14 62/15/15 5/8/8
f 61/16/16 4/10/10 11/11/11
f 11/11/11 17/17/17 18/18/18
f 9/2/2 15/19/19 16/20/20
f 7/5/5 13/21/21 14/22/22
f 5/8/8 62/23/15 12/24/23
f 61/25/16 11/11/11 18/18/18
f 10/3/3 16/20/20 17/17/17
f 8/6/6 14/22/22 15/19/19
f 6/9/9 12/24/23 13/21/21
f 14/22/22 20/26/24 21/27/25
f 12/24/23 62/28/15 19/29/26
f 61/30/16 18/18/18 25/31/27
f 17/17/17 23/32/28 24/33/29
f 15/19/19 21/27/25 22/34/30
f 13/21/21 19/29/26 20/26/24
f 18/18/18 24/33/29 25/31/27
f 16/20/20 22/34/30 23/32/28
f 61/35/16 25/31/27 32/36/31
f 24/33/29 30/37/32 31/38/33
f 22/34/30 28/39/34 29/40/35
f 20/26/24 26/41/36 27/42/37
f 25/31/27 31/38/33 32/36/31
f 23/32/28 29/40/35 30/37/32
f 21/27/25 27/42/37 28/39/34
f 19/29/26 62/43/15 26/41/36
f 27/42/37 33/44/38 34/45/39
f 32/36/31 38/46/40 39/47/41
f 30/37/32 36/48/42 37/49/43
f 28/39/34 34/45/39 35/50/44
f 26/41/36 62/51/15 33/44/38
f 61/52/16 32/36/31 39/47/41
f 31/38/33 37/49/43 38/46/40
f 29/40/35 35/50/44 36/48/42
f 39/47/41 45/53/45 46/54/46
f 37/49/43 43/55/47 44/56/48
f 35/50/44 41/57/49 42/58/50
f 33/44/38 62/59/15 40/60/51
f 61/61/16 39/47/41 46/54/46
f 38/46/40 44/56/48 45/53/45
f 36/48/42 42/58/50 43/55/47
f 34/45/39 40/60/51 41/57/49
f 40/60/51 62/62/15 47/63/52
f 61/64/16 46/54/46 53/65/53
f 45/53/45 51/66/54 52/67/55
f 43/55/47 49/68/56 50/69/57
f 41/57/49 47/63/52 48/70/58
f 46/54/46 52/67/55 53/65/53
f 44/56/48 50/69/57 51/66/54
f 42/58/50 48/70/58 49/68/56
f 52/67/55 58/71/59 59/72/60
f 50/69/57 56/73/61 57/74/62
f 48/70/58 54/75/63 55/76/64
f 53/65/53 59/72/60 60/77/65
f 51/66/54 57/74/62 58/71/59
f 49/68/56 55/76/64 56/73/61
f 47/63/52 62/78/15 54/75/63
f 61/79/16 53/65/53 60/77/65
f 60/77/65 68/80/66 69/81/67
f 58/71/59 66/82/68 67/83/69
f 56/73/61 64/84/70 65/85/71
f 54/75/63 62/86/15 63/87/72
f 61/88/16 60/77/65 69/81/67
f 59/72/60 67/83/69 68/80/66
f 57/74/62 65/85/71 66/82/68
f 55/76/64 63/87/72 64/84/70
f 67/83/69 73/89/73 74/90/74
f 65/85/71 71/91/75 72/92/76
f 63/87/72 62/93/15 70/94/77
f 61/95/16 69/81/67 76/96/78
f 68/80/66 74/90/74 75/97/79
f 66/82/68 72/92/76 73/89/73
f 64/84/70 70/94/77 71/91/75
f 69/81/67 75/97/79 76/96/78
f 61/98/16 76/96/78 83/99/80
f 75/97/79 81/100/81 82/101/82
f 73/89/73 79/102/83 80/103/84
f 71/91/75 77/104/85 78/105/86
f 76/96/78 82/101/82 83/99/80
f 74/90/74 80/103/84 81/100/81
f 72/92/76 78/105/86 79/102/83
f 70/94/77 62/106/15 77/104/85
f 80/103/84 86/107/87 87/108/88
f 78/105/86 84/109/89 85/110/90
f 83/99/80 89/111/91 90/112/92
f 81/100/81 87/108/88 88/113/93
f 79/102/83 85/110/90 86/107/87
f 77/104/85 62/114/15 84/109/89
f 61/115/16 83/99/80 90/112/92
f 82/101/82 88/113/93 89/111/91
f 90/116/92 96/117/94 97/118/95
f 88/119/93 94/120/96 95/121/97
f 86/122/87 92/123/98 93/124/99
f 84/125/89 62/126/15 91/127/100
f 61/128/16 90/116/92 97/118/95
f 89/129/91 95/121/97 96/117/94
f 87/130/88 93/124/99 94/120/96
f 85/131/90 91/127/100 92/123/98
f 93/124/99 99/132/101 100/133/102
f 91/127/100 62/134/15 98/135/103
f 61/136/16 97/118/95 104/137/104
f 96/117/94 102/138/105 103/139/106
f 94/120/96 100/133/102 101/140/107
f 92/123/98 98/135/103 99/132/101
f 97/118/95 103/139/106 104/137/104
f 95/121/97 101/140/107 102/138/105
f 61/141/16 104/137/104 111/142/108
f 103/139/106 109/143/109 110/144/110
f 101/140/107 107/145/111 108/146/112
f 99/132/101 105/147/113 106/148/114
f 104/137/104 110/144/110 111/142/108
f 102/138/105 108/146/112 109/143/109
f 100/133/102 106/148/114 107/145/111
f 98/135/103 62/149/15 105/147/113
f 106/148/114 112/14/14 113/7/7
f 111/142/108 114/1/1 4/10/10
f 109/143/109 2/4/4 3/12/12
f 107/145/111 113/7/7 1/13/13
f 105/147/113 62/150/15 112/14/14
f 61/151/16 111/142/108 4/10/10
f 110/144/110 3/12/12 114/1/1
f 108/146/112 1/13/13 2/4/4
f 114/1/1 3/12/12 9/2/2
f 2/4/4 1/13/13 7/5/5
f 113/7/7 112/14/14 5/8/8
f 4/10/10 114/1/1 10/3/3
f 3/12/12 2/4/4 8/6/6
f 1/13/13 113/7/7 6/9/9
f 11/11/11 10/3/3 17/17/17
f 9/2/2 8/6/6 15/19/19
f 7/5/5 6/9/9 13/21/21
f 10/3/3 9/2/2 16/20/20
f 8/6/6 7/5/5 14/22/22
f 6/9/9 5/8/8 12/24/23
f 14/22/22 13/21/21 20/26/24
f 17/17/17 16/20/20 23/32/28
f 15/19/19 14/22/22 21/27/25
f 13/21/21 12/24/23 19/29/26
f 18/18/18 17/17/17 24/33/29
f 16/20/20 15/19/19 22/34/30
f 24/33/29 23/32/28 30/37/32
f 22/34/30 21/27/25 28/39/34
f 20/26/24 19/29/26 26/41/36
f 25/31/27 24/33/29 31/38/33
f 23/32/28 22/34/30 29/40/35
f 21/27/25 20/26/24 27/42/37
f 27/42/37 26/41/36 33/44/38
f 32/36/31 31/38/33 38/46/40
f 30/37/32 29/40/35 36/48/42
f 28/39/34 27/42/37 34/45/39
f 31/38/33 30/37/32 37/49/43
f 29/40/35 28/39/34 35/50/44
f 39/47/41 38/46/40 45/53/45
f 37/49/43 36/48/42 43/55/47
f 35/50/44 34/45/39 41/57/49
f 38/46/40 37/49/43 44/56/48
f 36/48/42 35/50/44 42/58/50
f 34/45/39 33/44/38 40/60/51
f 45/53/45 44/56/48 51/66/54
f 43/55/47 42/58/50 49/68/56
f 41/57/49 40/60/51 47/63/52
f 46/54/46 45/53/45 52/67/55
f 44/56/48 43/55/47 50/69/57
f 42/58/50 41/57/49 48/70/58
f 52/67/55 51/66/54 58/71/59
f 50/69/57 49/68/56 56/73/61
f 48/70/58 47/63/52 54/75/63
f 53/65/53 52/67/55 59/72/60
f 51/66/54 50/69/57 57/74/62
f 49/68/56 48/70/58 55/76/64
f 60/77/65 59/72/60 68/80/66
f 58/71/59 57/74/62 66/82/68
f 56/73/61 55/76/64 64/84/70
f 59/72/60 58/71/59 67/83/69
f 57/74/62 56/73/61 65/85/71
f 55/76/64 54/75/63 63/87/72
f 67/83/69 66/82/68 73/89/73
f 65/85/71 64/84/70 71/91/75
f 68/80/66 67/83/69 74/90/74
f 66/82/68 65/85/71 72/92/76
f 64/84/70 63/87/72 70/94/77
f 69/81/67 68/80/66 75/97/79
f 75/97/79 74/90/74 81/100/81
f 73/89/73 72/92/76 79/102/83
f 71/91/75 70/94/77 77/104/85
f 76/96/78 75/97/79 82/101/82
f 74/90/74 73/89/73 80/103/84
f 72/92/76 71/91/75 78/105/86
f 80/103/84 79/102/83 86/107/87
f 78/105/86 77/104/85 84/109/89
f 83/99/80 82/101/82 89/111/91
f 81/100/81 80/103/84 87/108/88
f 79/102/83 78/105/86 85/110/90
f 82/101/82 81/100/81 88/113/93
f 90/116/92 89/129/91 96/117/94
f 88/119/93 87/130/88 94/120/96
f 86/122/87 85/131/90 92/123/98
f 89/129/91 88/119/93 95/121/97
f 87/130/88 86/122/87 93/124/99
f 85/131/90 84/125/89 91/127/100
f 93/124/99 92/123/98 99/132/101
f 96/117/94 95/121/97 102/138/105
f 94/120/96 93/124/99 100/133/102
f 92/123/98 91/127/100 98/135/103
f 97/118/95 96/117/94 103/139/106
f 95/121/97 94/120/96 101/140/107
f 103/139/106 102/138/105 109/143/109
f 101/140/107 100/133/102 107/145/111
f 99/132/101 98/135/103 105/147/113
f 104/137/104 103/139/106 110/144/110
f 102/138/105 101/140/107 108/146/112
f 100/133/102 99/132/101 106/148/114
f 106/148/114 105/147/113 112/14/14
f 111/142/108 110/144/110 114/1/1
f 109/143/109 108/146/112 2/4/4
f 107/145/111 106/148/114 113/7/7
f 110/144/110 109/143/109 3/12/12
f 108/146/112 107/145/111 1/13/13
