# Blender 4.4.3
# www.blender.org
mtllib wedge.mtl
o Cube
v 0.500000 -0.500000 -0.500000
v 0.500000 0.500000 -0.500000
v 0.500000 -0.500000 0.500000
v 0.500000 0.500000 0.500000
v -0.500000 -0.500000 -0.500000
v -0.500000 -0.500000 0.500000
vn 1.0000 -0.0000 -0.0000
vn -0.7071 0.7071 -0.0000
vn -0.0000 -1.0000 -0.0000
vn -0.0000 -0.0000 -1.0000
vn -0.0000 -0.0000 1.0000
vt 1.000000 0.000000
vt 0.000000 1.000000
vt 0.000000 0.000000
vt 1.000000 1.207107
vt 0.000000 -0.207107
vt 1.000000 -0.207107
vt 0.000000 1.207107
vt 1.000000 1.000000
vt 1.000000 -0.207107
vt 0.000000 1.000000
vt 0.000000 0.000000
vt 1.000000 0.000000
vt 0.000000 0.000000
s 1
f 1/1/1 4/2/1 3/3/1
f 4/4/2 5/5/2 6/6/2
f 4/4/2 2/7/2 5/5/2
f 1/1/1 2/8/1 4/2/1
f 3/9/3 5/5/3 1/5/3
f 3/9/3 6/6/3 5/5/3
f 2/10/4 1/11/4 5/1/4
f 4/2/5 6/12/5 3/13/5
